<svg width="60" height="60" viewBox="0 0 60 60" fill="none" xmlns="http://www.w3.org/2000/svg">
<path fill-rule="evenodd" clip-rule="evenodd" d="M19.123 36.8372C18.7662 36.1649 18.0679 35.7397 17.304 35.7397C16.5388 35.7397 15.8404 36.1656 15.4836 36.8392L15.3055 37.1754L14.9258 37.1494C13.4444 37.0477 10.7487 36.7535 9.4767 35.9492C8.90717 35.589 8.39307 35.1089 8.39307 34.3878V30.7395H12.1148V32.6469C12.1148 33.3206 12.6647 33.8692 13.3381 33.8692H21.2694C21.943 33.8692 22.4915 33.3205 22.4915 32.6469V30.7395H26.2149V34.3878C26.2149 35.1089 25.6988 35.5895 25.1296 35.9493C23.8605 36.7513 21.1585 37.0455 19.6807 37.1472L19.3012 37.1733L19.123 36.8372ZM18.6594 37.7986C18.6594 37.0511 18.0517 36.4428 17.304 36.4428C16.5562 36.4428 15.9481 37.0508 15.9481 37.7986C15.9481 38.5464 16.5562 39.1545 17.304 39.1545C18.0517 39.1546 18.6594 38.5462 18.6594 37.7986ZM45.8949 37.4708C46.2644 37.257 46.635 37.0449 47.0073 36.8357C47.3191 36.6604 47.6624 36.6621 47.9716 36.8425C48.2818 37.0233 48.4522 37.3214 48.4522 37.6801V53.8081C48.4522 54.1758 48.2699 54.4833 47.9467 54.6592C47.6265 54.8333 47.2712 54.8213 46.9632 54.6263C46.6033 54.3985 46.2419 54.173 45.8798 53.9487L45.6024 53.7769V37.6402L45.8949 37.4708ZM35.7828 49.8306H31.5608C29.3549 49.8306 27.56 48.0358 27.56 45.8298C27.56 43.6239 29.3549 41.829 31.5608 41.829H35.7827V49.8306H35.7828ZM35.7828 50.5336V57.8107L35.1572 57.7682C34.0891 57.6956 33.2579 56.8036 33.2579 55.733V50.5336H35.7828ZM34.7682 7.56178V2.72369L39.6072 7.56178H34.7682Z" fill="#9FBDFE"/>
<path fill-rule="evenodd" clip-rule="evenodd" d="M53.7138 49.5293C53.3481 49.1636 52.754 49.1636 52.3889 49.5293C52.0215 49.8961 52.0215 50.4891 52.3889 50.8559L53.6718 52.1388C53.8544 52.322 54.0949 52.4135 54.3337 52.4135C54.5742 52.4135 54.8142 52.3219 54.9974 52.1388C55.3642 51.7726 55.3642 51.1791 54.9974 50.8123L53.7138 49.5293ZM56.816 44.9483H55.0008C54.4828 44.9483 54.0636 45.3691 54.0636 45.8861C54.0636 46.404 54.4828 46.8232 55.0008 46.8232H56.816C57.334 46.8232 57.7537 46.404 57.7537 45.8861C57.7536 45.3691 57.334 44.9483 56.816 44.9483ZM53.2522 42.4348C53.4927 42.4348 53.7327 42.3433 53.9158 42.1595L55.1988 40.8759C55.5645 40.5102 55.5645 39.9162 55.1988 39.5504C54.832 39.1853 54.239 39.1853 53.8733 39.5504L52.5891 40.834C52.2234 41.1997 52.2234 41.7938 52.5891 42.1595C52.7728 42.3431 53.0122 42.4348 53.2522 42.4348ZM50.5637 45.8861C50.5637 45.2815 50.2322 44.7525 49.7413 44.4702V47.3026C50.2322 47.0201 50.5637 46.4917 50.5637 45.8861ZM47.8665 37.68C47.8665 37.5305 47.8068 37.4252 47.6768 37.3485C47.5466 37.2735 47.4247 37.2723 47.2945 37.3463C46.932 37.5492 46.567 37.7589 46.1886 37.9778V53.4504C46.5538 53.6766 46.9173 53.9038 47.2769 54.131C47.4061 54.2132 47.5334 54.2166 47.6669 54.1443C47.802 54.0703 47.8666 53.96 47.8666 53.8078V37.68H47.8665ZM35.197 57.1836V51.1195H33.844V55.733C33.844 56.5018 34.4424 57.1323 35.197 57.1836ZM31.5609 49.2447H35.197V42.4149H31.5609C29.6789 42.4149 28.1461 43.9466 28.1461 45.8297C28.1461 47.7129 29.679 49.2447 31.5609 49.2447ZM4.15755 49.2447C4.1388 49.2447 4.1211 49.227 4.1211 49.2082V2.84896C4.1211 2.83021 4.13868 2.81251 4.15755 2.81251H33.4794V7.42653C33.4794 8.21192 34.1176 8.8513 34.9041 8.8513H39.5182V39.3899C38.3775 39.8824 37.2115 40.2901 36.0388 40.5394H31.561C28.6442 40.5394 26.2713 42.9129 26.2713 45.8296C26.2713 47.1302 26.7445 48.3223 27.5261 49.2445H4.15755V49.2447ZM35.3543 4.13802V6.97595H38.1927L35.3543 4.13802ZM37.0725 49.4073C39.6891 49.9661 42.0749 51.0681 44.3131 52.3357V39.054C42.0749 40.316 39.6384 41.5676 37.0725 42.2213V49.4073ZM49.7413 49.2997V53.8079C49.7413 54.6436 49.3038 55.3827 48.5718 55.7859C48.226 55.9767 47.8521 56.0706 47.4808 56.0706C47.0621 56.0706 46.6462 55.9526 46.2739 55.7154C43.3312 53.8521 40.405 52.118 37.0724 51.328V58.1247C37.0724 58.6426 36.6526 59.0624 36.1346 59.0624H35.2979C33.4617 59.0624 31.9685 57.5681 31.9685 55.733V51.1195H4.15755C3.1045 51.1195 2.24634 50.2618 2.24634 49.2083V2.84896C2.24634 1.79485 3.10462 0.937744 4.15755 0.937744H34.0133C34.5313 0.937744 34.999 1.13087 35.3647 1.49708L40.8325 6.96552C41.1993 7.33173 41.3929 7.79896 41.3929 8.31692V38.4997C42.6048 37.8798 43.7775 37.2046 44.8884 36.5625C45.4042 36.2646 45.8906 35.9834 46.3745 35.7114C47.0822 35.3142 47.9227 35.3214 48.6233 35.7301C49.3227 36.1405 49.7414 36.8697 49.7414 37.68V42.4722C51.2858 42.84 52.4391 44.2311 52.4391 45.8859C52.4391 47.5419 51.2858 48.9325 49.7413 49.2997ZM24.8029 42.0376V37.5267C23.3358 38.0777 21.36 38.3204 19.8729 38.427C19.5904 39.5825 18.5463 40.4435 17.3041 40.4435C16.0619 40.4435 15.0178 39.5836 14.7354 38.428C13.2493 38.3216 11.2736 38.0789 9.80364 37.5278V42.0375C9.80364 42.2647 9.99618 42.4556 10.2222 42.4556H24.3842C24.6115 42.4557 24.8029 42.2649 24.8029 42.0376ZM17.3041 37.0287C16.8794 37.0287 16.5341 37.3745 16.5341 37.7987C16.5341 38.2229 16.8794 38.5688 17.3041 38.5688C17.7283 38.5688 18.0736 38.2229 18.0736 37.7987C18.0736 37.3745 17.7283 37.0287 17.3041 37.0287ZM8.97899 34.3876C8.97899 34.6446 9.07052 34.9993 9.78981 35.4538C10.6326 35.9872 12.5803 36.4009 14.9659 36.5647C15.4099 35.7268 16.2913 35.1538 17.304 35.1538C18.3151 35.1538 19.1966 35.7258 19.6406 36.5625C22.029 36.3981 23.9777 35.9844 24.8166 35.4538C25.5365 34.9993 25.6291 34.6446 25.6291 34.3876V31.3252H23.0775V32.6468C23.0775 33.6435 22.2666 34.4549 21.2694 34.4549H13.3381C12.3409 34.4549 11.5289 33.6435 11.5289 32.6468V31.3252H8.97888L8.97899 34.3876ZM14.9885 29.4504H19.6184V28.794C19.6184 28.5949 19.4508 28.4267 19.2512 28.4267H15.3565C15.1568 28.4267 14.9885 28.5949 14.9885 28.794V29.4504ZM13.4039 32.5801H21.2027V31.3253H13.4039V32.5801ZM26.6778 42.0376V36.3502C27.2261 35.7798 27.5041 35.1224 27.5041 34.3876V31.0825C27.5041 30.1822 26.7716 29.4503 25.8715 29.4503H21.4934V28.7939C21.4934 27.5578 20.4879 26.5518 19.2513 26.5518H15.3566C14.1199 26.5518 13.1133 27.5578 13.1133 28.7939V29.4503H8.7363C7.83665 29.4503 7.10353 30.1822 7.10353 31.0825V34.3876C7.10353 35.1224 7.38149 35.7798 7.92876 36.3502V42.0376C7.92876 43.3018 8.95802 44.3305 10.2222 44.3305H24.3842C25.6496 44.3305 26.6778 43.3018 26.6778 42.0376ZM10.2013 7.99302H27.7406C28.2586 7.99302 28.6777 7.57325 28.6777 7.05528C28.6777 6.53731 28.2586 6.11755 27.7406 6.11755H10.2013C9.68329 6.11755 9.26353 6.53731 9.26353 7.05528C9.26364 7.57325 9.68329 7.99302 10.2013 7.99302ZM10.2013 13.4135H33.4391C33.957 13.4135 34.3768 12.9938 34.3768 12.4764C34.3768 11.9584 33.957 11.5386 33.4391 11.5386H10.2013C9.68329 11.5386 9.26353 11.9584 9.26353 12.4764C9.26364 12.9938 9.68329 13.4135 10.2013 13.4135ZM10.2013 18.8345H33.4391C33.957 18.8345 34.3768 18.4147 34.3768 17.8968C34.3768 17.3794 33.957 16.9596 33.4391 16.9596H10.2013C9.68329 16.9596 9.26353 17.3794 9.26353 17.8968C9.26364 18.4147 9.68329 18.8345 10.2013 18.8345ZM9.26364 23.3179C9.26364 23.8358 9.68341 24.2556 10.2014 24.2556H33.4392C33.9572 24.2556 34.3769 23.8358 34.3769 23.3179C34.3769 22.8005 33.9572 22.3807 33.4392 22.3807H10.2013C9.68329 22.3807 9.26364 22.8004 9.26364 23.3179Z" fill="#7897DA"/>
</svg>
