<svg width="60" height="60" viewBox="0 0 60 60" fill="none" xmlns="http://www.w3.org/2000/svg">
<g clip-path="url(#clip0_51_1062)">
<path fill-rule="evenodd" clip-rule="evenodd" d="M45.8789 33.0171C49.2962 33.0171 52.0759 35.7964 52.0759 39.2139C52.0759 42.6322 49.2956 45.411 45.8774 45.4106C42.4606 45.4101 39.6821 42.6305 39.6821 39.2139C39.6821 35.7966 42.4616 33.0171 45.8789 33.0171ZM40.8035 23.9637C40.6483 23.9093 40.4754 23.9401 40.3488 24.0451C37.5646 26.355 33.8524 27.2684 30.313 26.529L28.5194 26.1544L30.2726 25.6218C35.1322 24.1451 38.6915 19.9421 39.3109 14.8835C39.5516 12.9172 39.3404 10.9147 38.6806 9.04616C38.0368 7.22261 36.9876 5.57624 35.6205 4.2096L34.3269 2.91632L36.0831 3.42796C40.3285 4.66499 43.5457 8.1648 44.4245 12.5068C45.0157 15.4283 44.4923 18.4597 42.9544 21.013C42.8717 21.1501 42.8649 21.3206 42.9362 21.4639L44.8937 25.3979L40.8035 23.9637ZM20.3181 39.2139C20.3181 42.6322 17.5378 45.411 14.1196 45.4106C10.7028 45.4101 7.92432 42.6305 7.92432 39.2139C7.92432 35.7964 10.704 33.0171 14.1213 33.0171C17.5385 33.0171 20.3181 35.7966 20.3181 39.2139Z" fill="#9FBDFE"/>
<path fill-rule="evenodd" clip-rule="evenodd" d="M33.6683 58.1257C34.1486 51.8096 39.4409 46.818 45.8774 46.8168C45.878 46.8168 45.8784 46.8174 45.8789 46.8174C45.8796 46.8174 45.8801 46.8168 45.8804 46.8168C52.317 46.818 57.6093 51.8096 58.0896 58.1257H33.6683ZM40.1509 39.2139C40.1509 36.0552 42.7205 33.4859 45.8789 33.4859C49.0376 33.4859 51.6072 36.0552 51.6072 39.2139C51.6072 42.372 49.0382 44.9413 45.8804 44.9419C45.8801 44.9419 45.8794 44.9419 45.8789 44.9419C45.8784 44.9419 45.8781 44.9419 45.8774 44.9419C42.7197 44.9413 40.1509 42.372 40.1509 39.2139ZM50.0448 45.5692C52.113 44.2094 53.482 41.8688 53.482 39.2138C53.482 35.0214 50.0712 31.6108 45.8788 31.6108C41.6865 31.6108 38.2758 35.0214 38.2758 39.2138C38.2758 41.8688 39.6448 44.2094 41.7128 45.5692C35.9538 47.3514 31.7578 52.7262 31.7578 59.0633C31.7578 59.5807 32.1776 60.0004 32.6954 60.0004H59.0625C59.5805 60.0004 60 59.5808 60 59.0633C60 52.7262 55.8043 47.3514 50.0448 45.5692ZM1.91051 58.1257C2.39074 51.8096 7.68305 46.818 14.1196 46.8168C14.1203 46.8168 14.1206 46.8174 14.1213 46.8174C14.1218 46.8174 14.1221 46.8168 14.1229 46.8168C20.5591 46.818 25.8514 51.8096 26.3317 58.1257H1.91051ZM8.39309 39.2139C8.39309 36.0552 10.9627 33.4859 14.1213 33.4859C17.2798 33.4859 19.8493 36.0552 19.8493 39.2139C19.8493 42.372 17.2804 44.9413 14.1229 44.9419C14.1223 44.9419 14.1216 44.9419 14.1211 44.9419C14.1206 44.9419 14.1203 44.9419 14.1196 44.9419C10.9618 44.9413 8.39309 42.372 8.39309 39.2139ZM18.2873 45.5692C20.3552 44.2094 21.7243 41.8688 21.7243 39.2138C21.7243 35.0214 18.3137 31.6108 14.1213 31.6108C9.92871 31.6108 6.5182 35.0214 6.5182 39.2138C6.5182 41.8688 7.88719 44.2094 9.95519 45.5692C4.19578 47.3514 0 52.7262 0 59.0633C0 59.5807 0.419766 60.0004 0.9375 60.0004H27.3046C27.8224 60.0004 28.2422 59.5808 28.2422 59.0633C28.2422 52.7262 24.0464 47.3514 18.2873 45.5692ZM20.0338 13.3213C20.0338 12.674 20.5583 12.1494 21.2057 12.1494C21.8529 12.1494 22.3775 12.6741 22.3775 13.3213C22.3775 13.9687 21.8528 14.4932 21.2057 14.4932C20.5582 14.4932 20.0338 13.9687 20.0338 13.3213ZM30.7341 13.3213C30.7341 12.674 31.2588 12.1494 31.9059 12.1494C32.553 12.1494 33.0778 12.6741 33.0778 13.3213C33.0778 13.9687 32.5532 14.4932 31.9059 14.4932C31.2588 14.4932 30.7341 13.9687 30.7341 13.3213ZM25.3707 13.3213C25.3707 12.674 25.8953 12.1494 26.5426 12.1494C27.1897 12.1494 27.7145 12.6741 27.7145 13.3213C27.7145 13.9687 27.1898 14.4932 26.5426 14.4932C25.8953 14.4932 25.3707 13.9687 25.3707 13.3213ZM15.1962 11.9305C14.8474 14.7785 15.573 17.6331 17.2391 19.9669C17.4254 20.2278 17.4654 20.5661 17.3455 20.8629L16.1318 23.8672L19.0423 22.5847C19.3349 22.456 19.7089 22.4985 19.9613 22.6771C21.8809 24.0325 24.2147 24.7661 26.5638 24.7661C32.2593 24.7667 37.2056 20.5057 37.915 14.712C38.2866 11.6778 37.4544 8.68057 35.5714 6.2726C33.6888 3.86416 30.981 2.33287 27.9468 1.96139C24.9124 1.5899 21.9149 2.4224 19.5068 4.30514C17.0986 6.18822 15.5677 8.89631 15.1962 11.9305ZM43.9651 12.5999C43.1031 8.34014 39.9438 5.04108 35.9521 3.87811C36.3397 4.26565 36.7059 4.67908 37.0488 5.11748C39.2401 7.92061 40.2088 11.4087 39.7763 14.9405C39.1161 20.3329 35.3009 24.5838 30.4089 26.0703C31.9172 26.3854 33.4856 26.397 35.0177 26.0868C36.867 25.7126 38.607 24.8817 40.0495 23.6844C40.3028 23.4743 40.6479 23.4124 40.9586 23.5213L43.96 24.5738L42.5164 21.6728C42.3737 21.3859 42.3873 21.046 42.5527 20.7712C44.0327 18.3147 44.5343 15.4125 43.9651 12.5999ZM13.5289 25.3053C13.3862 25.6585 13.4718 26.0637 13.7457 26.329C14.0197 26.5949 14.4272 26.6679 14.7762 26.5142L19.3248 24.5098C21.0075 25.5971 22.9365 26.2969 24.9367 26.5418C25.4687 26.607 25.9969 26.6391 26.5201 26.6407C28.4477 27.6617 30.5893 28.1885 32.7504 28.1885C33.6314 28.1885 34.5157 28.1012 35.3896 27.9243C37.3648 27.5246 39.2336 26.6772 40.8266 25.4622L45.5173 27.1067C45.8773 27.2328 46.2778 27.1288 46.5302 26.8424C46.7827 26.5566 46.8367 26.146 46.6668 25.8048L44.4193 21.2875C45.9393 18.5274 46.4307 15.3312 45.803 12.2278C44.5467 6.01947 39.1011 1.57068 32.801 1.54912C31.3802 0.795606 29.8186 0.302013 28.1747 0.100802C24.6434 -0.332089 21.1549 0.636935 18.3521 2.82822C15.5494 5.0194 13.7675 8.17092 13.3351 11.7021C12.9504 14.8447 13.6891 17.9935 15.4187 20.6263L13.5289 25.3053Z" fill="#7897DA"/>
</g>
<defs>
<clipPath id="clip0_51_1062">
<rect width="60" height="60" fill="white"/>
</clipPath>
</defs>
</svg>
