<svg width="60" height="60" viewBox="0 0 60 60" fill="none" xmlns="http://www.w3.org/2000/svg">
<g clip-path="url(#clip0_51_1038)">
<path fill-rule="evenodd" clip-rule="evenodd" d="M49.0931 30.0001C49.0931 29.74 48.8815 29.5313 48.622 29.5313H45.6867L51.9226 20.724L58.1585 29.5313H55.7152C55.4578 29.5313 55.2497 29.7435 55.2497 30.0001C55.2497 44.8443 43.1694 56.9196 28.3263 56.9196C13.4825 56.9196 1.40845 44.8436 1.40845 30.0001C1.40845 15.1567 13.4825 3.08063 28.3263 3.08063C32.3072 3.08063 36.2758 3.96903 39.8722 5.6768L40.4724 5.9618L35.8095 10.6241L35.5278 10.5199C33.2157 9.66457 30.7922 9.23649 28.3263 9.23649C16.8791 9.23649 7.56501 18.5531 7.56501 30C7.56501 41.4469 16.879 50.7641 28.3263 50.7641C39.7759 50.7642 49.0931 41.4503 49.0931 30.0001Z" fill="#9FBDFE"/>
<path fill-rule="evenodd" clip-rule="evenodd" d="M39.9752 23.9944C39.9752 24.5035 39.7818 24.9834 39.4168 25.3461C37.0671 27.7223 35.5247 29.2991 34.1646 30.6907C32.307 32.5948 30.7037 34.2395 27.591 37.3478C26.8446 38.0947 25.6283 38.0947 24.882 37.3478L17.2413 29.7055C16.8819 29.344 16.6829 28.8629 16.6829 28.351C16.6829 27.8396 16.8819 27.3586 17.2413 26.9965C17.6007 26.6349 18.0817 26.4358 18.5959 26.4358C19.11 26.4358 19.5911 26.6348 19.9505 26.9965L25.5676 32.6169C25.7501 32.7933 25.9879 32.8933 26.2365 32.8911C26.4853 32.8905 26.7286 32.79 26.8999 32.612L36.7188 22.6543C37.0726 22.2928 37.5537 22.0931 38.0623 22.0921C38.0623 22.0915 38.0678 22.0915 38.0678 22.0915C38.5764 22.0915 39.0519 22.2883 39.4112 22.6465C39.7761 23.0059 39.9752 23.4846 39.9752 23.9944ZM38.0568 20.2166C37.0451 20.2193 36.0996 20.6153 35.3809 21.335L26.231 30.6232L21.2774 25.6706C20.5587 24.9546 19.6077 24.5605 18.596 24.5605C17.5842 24.5605 16.6334 24.9547 15.9146 25.6706C15.2014 26.3866 14.8034 27.3387 14.8034 28.3509C14.8034 29.3638 15.2014 30.3158 15.9146 31.0318L23.5553 38.6735C24.2961 39.4121 25.2691 39.782 26.2366 39.782C27.2098 39.782 28.1771 39.4121 28.918 38.6735C32.0363 35.5576 33.645 33.9095 35.5082 32.001C36.9291 30.5436 38.4052 29.0371 40.7494 26.6669C41.4626 25.9505 41.8552 24.9995 41.8497 23.9889C41.8497 22.9782 41.4516 22.0295 40.7384 21.3174C40.0196 20.6071 39.0743 20.2167 38.068 20.2167C38.0623 20.2166 38.0623 20.2166 38.0568 20.2166ZM55.7153 29.0625H57.2522L51.9226 21.5352L46.5929 29.0625H48.6219C49.1416 29.0625 49.5618 29.4826 49.5618 30.0001C49.5618 41.7076 40.0358 51.233 28.3262 51.233C16.622 51.233 7.09617 41.7076 7.09617 30.0001C7.09617 18.2926 16.6221 8.76784 28.3263 8.76784C30.864 8.76784 33.3353 9.20905 35.6905 10.0803L39.6711 6.10018C36.1494 4.4278 32.2516 3.54925 28.3263 3.54925C13.7418 3.54925 1.87723 15.4148 1.87723 30C1.87723 44.5851 13.7418 56.4507 28.3263 56.4507C42.9109 56.4507 54.7809 44.5851 54.7809 30C54.7809 29.4826 55.2012 29.0625 55.7153 29.0625ZM59.8286 29.4583L52.6855 19.3713C52.5142 19.1231 52.2267 18.976 51.9226 18.976C51.6185 18.976 51.3311 19.1231 51.1596 19.3713L44.0166 29.4583C43.812 29.7442 43.7844 30.1195 43.9447 30.4309C44.105 30.7421 44.4313 30.9378 44.7796 30.9378H47.6655C47.1735 41.178 38.687 49.3577 28.3263 49.3577C17.6561 49.3577 8.97047 40.6739 8.97047 30.0002C8.97047 19.3266 17.6559 10.6427 28.3263 10.6427C30.8309 10.6427 33.2689 11.1143 35.5689 12.0443C35.9227 12.1853 36.3207 12.1039 36.5862 11.838L41.9159 6.50999C42.126 6.30046 42.22 6.00409 42.1757 5.71053C42.1315 5.41698 41.9545 5.16093 41.6946 5.02112C37.609 2.83171 32.987 1.67401 28.3263 1.67401C20.7632 1.67401 13.6478 4.62081 8.30156 9.97089C2.94973 15.3211 0.00292969 22.4341 0.00292969 30.0001C0.00292969 37.5661 2.94973 44.6792 8.30145 50.0293C13.6477 55.3794 20.763 58.3262 28.3262 58.3262C35.895 58.3262 43.0103 55.3794 48.3565 50.0293C53.4871 44.901 56.4062 38.1527 56.6385 30.9377H59.0655C59.4138 30.9377 59.7346 30.742 59.9004 30.4308C60.0608 30.1195 60.0332 29.7442 59.8286 29.4583Z" fill="#7897DA"/>
</g>
<defs>
<clipPath id="clip0_51_1038">
<rect width="60" height="60" fill="white"/>
</clipPath>
</defs>
</svg>
