<svg width="24" height="29" viewBox="0 0 24 29" fill="none" xmlns="http://www.w3.org/2000/svg">
<path fill-rule="evenodd" clip-rule="evenodd" d="M17.2669 0.600098C17.5182 2.30672 16.8235 3.97862 15.9072 5.16152C14.9268 6.43042 13.2369 7.41172 11.5996 7.36052C11.3007 5.72662 12.066 4.04312 12.9972 2.91142C14.0186 1.66242 15.7692 0.704178 17.2669 0.600098ZM22.1854 24.6217C23.0295 23.3281 23.3448 22.6755 24 21.215C19.2343 19.4027 18.4707 12.6274 23.1871 10.027C21.7485 8.22292 19.727 7.17712 17.8187 7.17712C16.4437 7.17712 15.5016 7.53592 14.6452 7.86212C13.9315 8.13402 13.2772 8.38312 12.4815 8.38312C11.6216 8.38312 10.8601 8.11012 10.0628 7.82422C9.18663 7.51012 8.26723 7.18042 7.12623 7.18042C4.98483 7.18042 2.70543 8.48892 1.26023 10.7258C-0.771173 13.8764 -0.424672 19.7992 2.86963 24.8447C4.04713 26.6505 5.62033 28.6793 7.67803 28.6974C8.53183 28.7059 9.10003 28.4511 9.71483 28.1753C10.4186 27.8597 11.1834 27.5166 12.5078 27.5096C13.8399 27.5016 14.5927 27.8488 15.2871 28.1691C15.8862 28.4454 16.4417 28.7017 17.2883 28.6925C19.3476 28.676 21.0079 26.4274 22.1854 24.6217Z" fill="#0B0B0A"/>
</svg>
