<svg width="54" height="54" viewBox="0 0 54 54" fill="none" xmlns="http://www.w3.org/2000/svg">
<g clip-path="url(#clip0_155_1250)">
<path d="M53.6905 19.7175C53.4264 19.3953 53.0324 19.2073 52.619 19.2073H47.3634C46.0665 15.7865 44.3769 12.4348 42.4564 11.1696C35.8127 6.79892 18.1906 6.79892 11.5469 11.1696C9.62497 12.4362 7.94227 15.792 6.63841 19.2073H1.3829C0.965338 19.2073 0.572661 19.3953 0.311337 19.7175C0.0486306 20.0383 -0.0564519 20.4628 0.0292733 20.8707L0.807714 24.6427C0.94045 25.2856 1.50734 25.7447 2.16134 25.7447H3.71822C2.21527 27.4786 1.4866 29.6619 1.47692 31.8465C1.46725 34.5456 2.4918 36.9847 4.36531 38.7103C4.38605 38.7282 4.40679 38.7407 4.42615 38.7587V44.0364C4.42615 45.1799 5.3553 46.1105 6.50015 46.1105H11.3478C12.4926 46.1105 13.4218 45.1799 13.4218 44.0364V41.9154H40.5787V44.0364C40.5787 45.1799 41.5079 46.1105 42.6527 46.1105H47.5003C48.6424 46.1105 49.5743 45.1799 49.5743 44.0364V38.8624C51.5626 37.0414 52.5125 34.5359 52.5249 32.0346C52.5332 29.7753 51.7714 27.5118 50.1799 25.7419H51.8405C52.4973 25.7419 53.0642 25.2829 53.1941 24.6385L53.974 20.8679C54.0542 20.4628 53.9532 20.041 53.6905 19.7175ZM13.8241 14.6333C19.1197 11.1475 34.8807 11.1475 40.1736 14.6333C41.2023 15.3081 42.5255 18.0361 43.7381 21.3767H10.2624C11.4722 18.0375 12.7954 15.3108 13.8241 14.6333ZM7.62149 32.3664C7.62149 30.1126 9.44937 28.2875 11.7017 28.2875C13.9569 28.2875 15.782 30.1126 15.782 32.3664C15.782 34.6202 13.9569 36.4468 11.7017 36.4468C9.44937 36.4468 7.62149 34.6202 7.62149 32.3664ZM42.3527 36.4468C40.1003 36.4468 38.2724 34.6202 38.2724 32.3664C38.2724 30.1126 40.1003 28.2875 42.3527 28.2875C44.6078 28.2875 46.4329 30.1126 46.4329 32.3664C46.4329 34.6202 44.605 36.4468 42.3527 36.4468Z" fill="white"/>
</g>
<defs>
<clipPath id="clip0_155_1250">
<rect width="54" height="54" fill="white"/>
</clipPath>
</defs>
</svg>
