<svg width="21" height="22" viewBox="0 0 21 22" fill="none" xmlns="http://www.w3.org/2000/svg">
<path d="M10.9996 4.6214C12.9525 4.6214 14.2698 5.465 15.021 6.1699L17.9561 3.3041C16.1534 1.6285 13.8076 0.600098 10.9996 0.600098C6.93208 0.600098 3.41918 2.9343 1.70898 6.3316L5.07158 8.9432C5.91518 6.4356 8.24938 4.6214 10.9996 4.6214Z" fill="#EA4335"/>
<path d="M20.984 11.2312C20.984 10.3761 20.9147 9.75208 20.7644 9.10498H11V12.9645H16.7316C16.616 13.9236 15.992 15.3681 14.6053 16.3387L17.8871 18.881C19.8516 17.0667 20.984 14.3974 20.984 11.2312Z" fill="#4285F4"/>
<path d="M5.08321 13.0569C4.86361 12.4098 4.73651 11.7164 4.73651 11C4.73651 10.2835 4.86361 9.59024 5.07161 8.94314L1.70891 6.33154C1.00411 7.74134 0.599609 9.32444 0.599609 11C0.599609 12.6755 1.00411 14.2587 1.70891 15.6684L5.08321 13.0569Z" fill="#FBBC05"/>
<path d="M10.9998 21.4002C13.8078 21.4002 16.1651 20.4758 17.8869 18.8811L14.6051 16.3389C13.7269 16.9513 12.5482 17.3789 10.9998 17.3789C8.2496 17.3789 5.9154 15.5646 5.0834 13.0571L1.7207 15.6686C3.4309 19.066 6.9322 21.4002 10.9998 21.4002Z" fill="#34A853"/>
</svg>
