<svg width="88" height="18" viewBox="0 0 88 18" fill="none" xmlns="http://www.w3.org/2000/svg">
<path d="M18.674 0.499999V14H16.406V1.22L17.144 1.256L10.862 14H8.324L2.042 1.274L2.78 1.238V14H0.512V0.499999H4.148L10.196 12.974H9.008L15.038 0.499999H18.674ZM24.4116 17.222C23.8116 17.222 23.2656 17.144 22.7736 16.988C22.2936 16.844 21.8436 16.64 21.4236 16.376V14.594C21.8796 14.882 22.3116 15.092 22.7196 15.224C23.1396 15.356 23.6076 15.422 24.1236 15.422C24.6156 15.422 25.0536 15.308 25.4376 15.08C25.8216 14.864 26.1396 14.48 26.3916 13.928L30.9816 3.812H33.4656L28.1916 14.72C27.9036 15.32 27.5616 15.8 27.1656 16.16C26.7816 16.532 26.3556 16.802 25.8876 16.97C25.4316 17.138 24.9396 17.222 24.4116 17.222ZM25.5816 13.676L20.9016 3.812H23.4756L27.9036 13.676H25.5816Z" fill="#0D1931"/>
<path d="M42.9668 0.499999C44.0948 0.499999 45.0668 0.691999 45.8828 1.076C46.7108 1.46 47.3408 2.006 47.7728 2.714C48.2048 3.41 48.4208 4.226 48.4208 5.162C48.4208 6.086 48.2048 6.902 47.7728 7.61C47.3408 8.306 46.7108 8.846 45.8828 9.23C45.0668 9.614 44.0948 9.806 42.9668 9.806H37.1168V6.818H42.7328C43.3328 6.818 43.8008 6.674 44.1368 6.386C44.4728 6.086 44.6408 5.678 44.6408 5.162C44.6408 4.634 44.4728 4.226 44.1368 3.938C43.8008 3.638 43.3328 3.488 42.7328 3.488H37.4408L39.1148 1.76V14H35.3888V0.499999H42.9668ZM49.851 3.722H53.595L54.207 7.394V14H50.535V7.178L49.851 3.722ZM59.031 3.56V6.692C58.671 6.62 58.329 6.572 58.005 6.548C57.693 6.512 57.405 6.494 57.141 6.494C56.613 6.494 56.127 6.602 55.683 6.818C55.239 7.022 54.879 7.364 54.603 7.844C54.339 8.324 54.207 8.966 54.207 9.77L53.505 8.906C53.601 8.162 53.745 7.466 53.937 6.818C54.129 6.158 54.387 5.576 54.711 5.072C55.047 4.556 55.461 4.154 55.953 3.866C56.445 3.566 57.045 3.416 57.753 3.416C57.957 3.416 58.167 3.428 58.383 3.452C58.599 3.476 58.815 3.512 59.031 3.56ZM66.6825 14.288C65.3625 14.288 64.2105 14.066 63.2265 13.622C62.2425 13.166 61.4745 12.53 60.9225 11.714C60.3705 10.886 60.0945 9.938 60.0945 8.87C60.0945 7.778 60.3705 6.824 60.9225 6.008C61.4745 5.192 62.2425 4.556 63.2265 4.1C64.2105 3.644 65.3625 3.416 66.6825 3.416C67.9905 3.416 69.1365 3.644 70.1205 4.1C71.1165 4.556 71.8905 5.192 72.4425 6.008C72.9945 6.824 73.2705 7.778 73.2705 8.87C73.2705 9.938 72.9945 10.886 72.4425 11.714C71.8905 12.53 71.1165 13.166 70.1205 13.622C69.1365 14.066 67.9905 14.288 66.6825 14.288ZM66.6825 11.57C67.2825 11.57 67.7925 11.462 68.2125 11.246C68.6445 11.03 68.9745 10.718 69.2025 10.31C69.4305 9.902 69.5445 9.422 69.5445 8.87C69.5445 8.294 69.4305 7.808 69.2025 7.412C68.9745 7.004 68.6445 6.692 68.2125 6.476C67.7925 6.26 67.2825 6.152 66.6825 6.152C66.0825 6.152 65.5665 6.26 65.1345 6.476C64.7025 6.692 64.3725 7.004 64.1445 7.412C63.9165 7.808 63.8025 8.288 63.8025 8.852C63.8025 9.416 63.9165 9.902 64.1445 10.31C64.3725 10.718 64.7025 11.03 65.1345 11.246C65.5665 11.462 66.0825 11.57 66.6825 11.57ZM87.2744 10.652C87.2744 11.444 87.0344 12.11 86.5544 12.65C86.0744 13.19 85.3904 13.598 84.5024 13.874C83.6144 14.15 82.5464 14.288 81.2984 14.288C80.0144 14.288 78.8864 14.132 77.9144 13.82C76.9544 13.508 76.2044 13.07 75.6644 12.506C75.1244 11.942 74.8364 11.288 74.8004 10.544H78.5264C78.6104 10.82 78.7724 11.06 79.0124 11.264C79.2644 11.456 79.5944 11.606 80.0024 11.714C80.4104 11.81 80.8964 11.858 81.4604 11.858C82.1924 11.858 82.7444 11.786 83.1164 11.642C83.5004 11.498 83.6924 11.282 83.6924 10.994C83.6924 10.766 83.5484 10.598 83.2604 10.49C82.9724 10.37 82.4804 10.28 81.7844 10.22L79.9664 10.076C78.7544 9.992 77.7884 9.812 77.0684 9.536C76.3604 9.248 75.8504 8.882 75.5384 8.438C75.2264 7.982 75.0704 7.466 75.0704 6.89C75.0704 6.11 75.3104 5.468 75.7904 4.964C76.2824 4.448 76.9604 4.064 77.8244 3.812C78.7004 3.548 79.7204 3.416 80.8844 3.416C82.0364 3.416 83.0624 3.566 83.9624 3.866C84.8624 4.166 85.5824 4.586 86.1224 5.126C86.6624 5.654 86.9744 6.278 87.0584 6.998H83.3324C83.2724 6.77 83.1404 6.566 82.9364 6.386C82.7324 6.194 82.4504 6.038 82.0904 5.918C81.7304 5.798 81.2684 5.738 80.7044 5.738C80.0444 5.738 79.5404 5.81 79.1924 5.954C78.8564 6.098 78.6884 6.302 78.6884 6.566C78.6884 6.77 78.7904 6.932 78.9944 7.052C79.2104 7.172 79.6064 7.256 80.1824 7.304L82.5764 7.484C83.7644 7.556 84.7004 7.73 85.3844 8.006C86.0684 8.27 86.5544 8.624 86.8424 9.068C87.1304 9.512 87.2744 10.04 87.2744 10.652Z" fill="#7897DA"/>
</svg>
