<svg width="124" height="28" viewBox="0 0 124 28" fill="none" xmlns="http://www.w3.org/2000/svg">
<path d="M27.325 4.25V23H24.175V5.25L25.2 5.3L16.475 23H12.95L4.225 5.325L5.25 5.275V23H2.1V4.25H7.15L15.55 21.575H13.9L22.275 4.25H27.325ZM35.2939 27.475C34.4606 27.475 33.7023 27.3667 33.0189 27.15C32.3523 26.95 31.7273 26.6667 31.1439 26.3V23.825C31.7773 24.225 32.3773 24.5167 32.9439 24.7C33.5273 24.8833 34.1773 24.975 34.8939 24.975C35.5773 24.975 36.1856 24.8167 36.7189 24.5C37.2523 24.2 37.6939 23.6667 38.0439 22.9L44.4189 8.85H47.8689L40.5439 24C40.1439 24.8333 39.6689 25.5 39.1189 26C38.5856 26.5167 37.9939 26.8917 37.3439 27.125C36.7106 27.3583 36.0273 27.475 35.2939 27.475ZM36.9189 22.55L30.4189 8.85H33.9939L40.1439 22.55H36.9189Z" fill="white"/>
<path d="M61.065 4.25C62.6317 4.25 63.9817 4.51667 65.115 5.05C66.265 5.58333 67.14 6.34167 67.74 7.325C68.34 8.29167 68.64 9.425 68.64 10.725C68.64 12.0083 68.34 13.1417 67.74 14.125C67.14 15.0917 66.265 15.8417 65.115 16.375C63.9817 16.9083 62.6317 17.175 61.065 17.175H52.94V13.025H60.74C61.5734 13.025 62.2234 12.825 62.69 12.425C63.1567 12.0083 63.39 11.4417 63.39 10.725C63.39 9.99167 63.1567 9.425 62.69 9.025C62.2234 8.60833 61.5734 8.4 60.74 8.4H53.39L55.715 6V23H50.54V4.25H61.065ZM70.6264 8.725H75.8264L76.6764 13.825V23H71.5764V13.525L70.6264 8.725ZM83.3764 8.5V12.85C82.8764 12.75 82.4014 12.6833 81.9514 12.65C81.518 12.6 81.118 12.575 80.7514 12.575C80.018 12.575 79.343 12.725 78.7264 13.025C78.1097 13.3083 77.6097 13.7833 77.2264 14.45C76.8597 15.1167 76.6764 16.0083 76.6764 17.125L75.7014 15.925C75.8347 14.8917 76.0347 13.925 76.3014 13.025C76.568 12.1083 76.9264 11.3 77.3764 10.6C77.843 9.88333 78.418 9.325 79.1014 8.925C79.7847 8.50833 80.618 8.3 81.6014 8.3C81.8847 8.3 82.1764 8.31667 82.4764 8.35C82.7764 8.38333 83.0764 8.43333 83.3764 8.5ZM94.0035 23.4C92.1702 23.4 90.5702 23.0917 89.2035 22.475C87.8368 21.8417 86.7702 20.9583 86.0035 19.825C85.2368 18.675 84.8535 17.3583 84.8535 15.875C84.8535 14.3583 85.2368 13.0333 86.0035 11.9C86.7702 10.7667 87.8368 9.88333 89.2035 9.25C90.5702 8.61667 92.1702 8.3 94.0035 8.3C95.8202 8.3 97.4118 8.61667 98.7785 9.25C100.162 9.88333 101.237 10.7667 102.004 11.9C102.77 13.0333 103.154 14.3583 103.154 15.875C103.154 17.3583 102.77 18.675 102.004 19.825C101.237 20.9583 100.162 21.8417 98.7785 22.475C97.4118 23.0917 95.8202 23.4 94.0035 23.4ZM94.0035 19.625C94.8368 19.625 95.5452 19.475 96.1285 19.175C96.7285 18.875 97.1868 18.4417 97.5035 17.875C97.8202 17.3083 97.9785 16.6417 97.9785 15.875C97.9785 15.075 97.8202 14.4 97.5035 13.85C97.1868 13.2833 96.7285 12.85 96.1285 12.55C95.5452 12.25 94.8368 12.1 94.0035 12.1C93.1702 12.1 92.4535 12.25 91.8535 12.55C91.2535 12.85 90.7952 13.2833 90.4785 13.85C90.1618 14.4 90.0035 15.0667 90.0035 15.85C90.0035 16.6333 90.1618 17.3083 90.4785 17.875C90.7952 18.4417 91.2535 18.875 91.8535 19.175C92.4535 19.475 93.1702 19.625 94.0035 19.625ZM122.603 18.35C122.603 19.45 122.27 20.375 121.603 21.125C120.937 21.875 119.987 22.4417 118.753 22.825C117.52 23.2083 116.037 23.4 114.303 23.4C112.52 23.4 110.953 23.1833 109.603 22.75C108.27 22.3167 107.228 21.7083 106.478 20.925C105.728 20.1417 105.328 19.2333 105.278 18.2H110.453C110.57 18.5833 110.795 18.9167 111.128 19.2C111.478 19.4667 111.937 19.675 112.503 19.825C113.07 19.9583 113.745 20.025 114.528 20.025C115.545 20.025 116.312 19.925 116.828 19.725C117.362 19.525 117.628 19.225 117.628 18.825C117.628 18.5083 117.428 18.275 117.028 18.125C116.628 17.9583 115.945 17.8333 114.978 17.75L112.453 17.55C110.77 17.4333 109.428 17.1833 108.428 16.8C107.445 16.4 106.737 15.8917 106.303 15.275C105.87 14.6417 105.653 13.925 105.653 13.125C105.653 12.0417 105.987 11.15 106.653 10.45C107.337 9.73333 108.278 9.2 109.478 8.85C110.695 8.48333 112.112 8.3 113.728 8.3C115.328 8.3 116.753 8.50833 118.003 8.925C119.253 9.34167 120.253 9.925 121.003 10.675C121.753 11.4083 122.187 12.275 122.303 13.275H117.128C117.045 12.9583 116.862 12.675 116.578 12.425C116.295 12.1583 115.903 11.9417 115.403 11.775C114.903 11.6083 114.262 11.525 113.478 11.525C112.562 11.525 111.862 11.625 111.378 11.825C110.912 12.025 110.678 12.3083 110.678 12.675C110.678 12.9583 110.82 13.1833 111.103 13.35C111.403 13.5167 111.953 13.6333 112.753 13.7L116.078 13.95C117.728 14.05 119.028 14.2917 119.978 14.675C120.928 15.0417 121.603 15.5333 122.003 16.15C122.403 16.7667 122.603 17.5 122.603 18.35Z" fill="#7897DA"/>
</svg>
