<svg width="54" height="54" viewBox="0 0 54 54" fill="none" xmlns="http://www.w3.org/2000/svg">
<g clip-path="url(#clip0_155_1269)">
<path d="M34.8558 28.582C34.1208 32.1881 30.8199 34.9102 27.0003 34.9102C23.1806 34.9102 19.9852 32.1881 19.2502 28.582H16.0859C16.8619 33.9346 21.4363 38.0742 27.0003 38.0742C32.5643 38.0742 37.2441 33.9346 38.0201 28.582H34.8558Z" fill="white"/>
<path d="M41.1839 28.582C40.3851 35.6817 34.3097 41.2383 27 41.2383C19.6903 41.2383 13.7203 35.6817 12.9216 28.582H0V30.1641C0 30.8454 0.437273 31.451 1.08306 31.6657L7.59238 33.7901C7.86586 34.5657 8.15474 35.2717 8.46376 35.9236L5.46033 41.9582C5.15753 42.5669 5.27797 43.3007 5.75849 43.7812L10.2188 48.2415C10.7023 48.7251 11.4346 48.8394 12.0418 48.5397L18.0764 45.5362C18.7284 45.8453 19.4344 46.1341 20.2099 46.4076L22.3343 52.9169C22.549 53.5627 23.1546 54 23.8359 54H30.2695C30.9509 54 31.5565 53.5627 31.7712 52.9169L33.8955 46.4076C34.6712 46.1341 35.3772 45.8453 36.0291 45.5362L42.0637 48.5397C42.6709 48.8409 43.4047 48.7251 43.8867 48.2415L48.347 43.7812C48.8275 43.3007 48.9479 42.5669 48.6451 41.9582L45.6417 35.9236C45.9507 35.2716 46.2396 34.5656 46.5131 33.7901L52.9169 31.6657C53.5627 31.451 54 30.8454 54 30.1641V28.582H41.1839Z" fill="white"/>
<path d="M22.5449 28.582C23.2002 30.4195 24.9398 31.7461 26.9996 31.7461C29.0594 31.7461 30.9045 30.4195 31.5598 28.582H22.5449Z" fill="white"/>
<path d="M27 0C23.5099 0 20.6719 2.83806 20.6719 6.32812C20.6719 9.81819 23.5099 12.6562 27 12.6562C30.4901 12.6562 33.4336 9.81819 33.4336 6.32812C33.4336 2.83806 30.4901 0 27 0Z" fill="white"/>
<path d="M42.9258 0C39.4357 0 36.5977 2.83806 36.5977 6.32812C36.5977 9.81819 39.4357 12.6562 42.9258 12.6562C46.4158 12.6562 49.2539 9.81819 49.2539 6.32812C49.2539 2.83806 46.4158 0 42.9258 0Z" fill="white"/>
<path d="M11.1797 0C7.68962 0 4.85156 2.83806 4.85156 6.32812C4.85156 9.81819 7.68962 12.6562 11.1797 12.6562C14.6698 12.6562 17.5078 9.81819 17.5078 6.32812C17.5078 2.83806 14.6698 0 11.1797 0Z" fill="white"/>
<path d="M48.3225 14.1206C46.788 15.1868 44.9323 15.8204 42.9262 15.8204C40.9284 15.8204 39.0785 15.1935 37.5476 14.1355C36.8537 14.5338 36.1868 14.9818 35.583 15.5219C38.6596 17.8217 40.7957 21.4136 41.2475 25.4181H54.0004V23.8361C54.0004 19.6993 51.6926 16.0217 48.3225 14.1206Z" fill="white"/>
<path d="M26.9996 15.8203C21.43 15.8203 16.8075 20.0586 16.0381 25.418H38.0664C37.2971 20.0586 32.5692 15.8203 26.9996 15.8203Z" fill="white"/>
<path d="M16.5583 14.1355C15.0274 15.1935 13.1775 15.8204 11.1797 15.8204C9.17357 15.8204 7.31784 15.1868 5.78338 14.1206C2.41323 16.0217 0 19.6993 0 23.8361V25.4181H12.8583C13.3102 21.4136 15.4462 17.8217 18.5228 15.5219C17.9189 14.9818 17.2522 14.5338 16.5583 14.1355Z" fill="white"/>
</g>
<defs>
<clipPath id="clip0_155_1269">
<rect width="54" height="54" fill="white"/>
</clipPath>
</defs>
</svg>
