<svg width="44" height="44" viewBox="0 0 44 44" fill="none" xmlns="http://www.w3.org/2000/svg">
<g clip-path="url(#clip0_104_924)">
<path d="M44 22C44 9.84974 34.1503 2.32194e-06 22 2.85305e-06C9.84973 3.38415e-06 -1.49276e-06 9.84974 -9.6165e-07 22C-4.30546e-07 34.1503 9.84974 44 22 44C34.1503 44 44 34.1503 44 22Z" fill="#7897DA"/>
<path d="M19.3182 12.5585C19.3182 16.5983 19.3182 20.6381 19.3182 24.6775C18.2889 23.6482 17.2595 22.6189 16.2299 21.5896C13.8555 19.2152 10.1839 22.9142 12.5646 25.2945C15.0738 27.8037 17.583 30.3125 20.0922 32.8217C21.0992 33.8288 22.7775 33.8016 23.7772 32.8019C26.286 30.2927 28.7952 27.7839 31.304 25.2747C33.6784 22.9003 29.9794 19.2288 27.5991 21.6095C26.576 22.6325 25.553 23.6556 24.5303 24.6786C24.5303 20.651 24.5303 16.6234 24.5303 12.5962C24.5303 9.23124 19.3182 9.20142 19.3182 12.5585Z" fill="white"/>
</g>
<defs>
<clipPath id="clip0_104_924">
<rect width="44" height="44" fill="white" transform="translate(0 44) rotate(-90)"/>
</clipPath>
</defs>
</svg>
