<svg width="24" height="24" viewBox="0 0 24 24" fill="none" xmlns="http://www.w3.org/2000/svg">
<path d="M2.31968 16.9192L2.97481 17.5788C3.18099 17.7849 3.4553 17.8984 3.74847 17.8984C4.04148 17.8984 4.31612 17.7849 4.5223 17.5788L11.9955 10.1053L19.4774 17.5871C19.6832 17.7932 19.9579 17.9065 20.2509 17.9065C20.5439 17.9065 20.8187 17.7932 21.0247 17.5871L21.68 16.9315C22.1067 16.5052 22.1067 15.8107 21.68 15.3844L12.772 6.44429C12.5661 6.23843 12.2918 6.09339 11.9962 6.09339H11.9928C11.6996 6.09339 11.4253 6.2386 11.2194 6.44429L2.31968 15.3601C2.1135 15.566 2.00033 15.8486 2 16.1416C2 16.4348 2.1135 16.7135 2.31968 16.9192Z" fill="white"/>
</svg>
