<svg width="18" height="18" viewBox="0 0 18 18" fill="none" xmlns="http://www.w3.org/2000/svg">
<g clip-path="url(#clip0_69_1716)">
<path d="M9 8.99994C9.89002 8.99994 10.76 8.73602 11.5001 8.24155C12.2401 7.74709 12.8169 7.04428 13.1575 6.22202C13.4981 5.39975 13.5872 4.49495 13.4135 3.62203C13.2399 2.74912 12.8113 1.9473 12.182 1.31796C11.5526 0.688624 10.7508 0.260041 9.87791 0.0864072C9.00499 -0.0872263 8.10019 0.00188875 7.27792 0.342483C6.45566 0.683077 5.75285 1.25985 5.25839 1.99987C4.76392 2.7399 4.5 3.60993 4.5 4.49994C4.50119 5.69305 4.97568 6.83695 5.81934 7.68061C6.66299 8.52426 7.80689 8.99875 9 8.99994ZM9 1.49994C9.59334 1.49994 10.1734 1.67589 10.6667 2.00553C11.1601 2.33518 11.5446 2.80371 11.7716 3.35189C11.9987 3.90007 12.0581 4.50327 11.9424 5.08521C11.8266 5.66715 11.5409 6.2017 11.1213 6.62126C10.7018 7.04082 10.1672 7.32654 9.58527 7.4423C9.00333 7.55805 8.40013 7.49864 7.85195 7.27158C7.30377 7.04452 6.83524 6.66 6.50559 6.16665C6.17595 5.6733 6 5.09329 6 4.49994C6 3.70429 6.31607 2.94123 6.87868 2.37862C7.44129 1.81601 8.20435 1.49994 9 1.49994Z" fill="white"/>
<path d="M9 10.5005C7.2104 10.5024 5.49466 11.2142 4.22922 12.4797C2.96378 13.7451 2.25199 15.4609 2.25 17.2505C2.25 17.4494 2.32902 17.6401 2.46967 17.7808C2.61032 17.9214 2.80109 18.0005 3 18.0005C3.19891 18.0005 3.38968 17.9214 3.53033 17.7808C3.67098 17.6401 3.75 17.4494 3.75 17.2505C3.75 15.8581 4.30312 14.5227 5.28769 13.5381C6.27226 12.5536 7.60761 12.0005 9 12.0005C10.3924 12.0005 11.7277 12.5536 12.7123 13.5381C13.6969 14.5227 14.25 15.8581 14.25 17.2505C14.25 17.4494 14.329 17.6401 14.4697 17.7808C14.6103 17.9214 14.8011 18.0005 15 18.0005C15.1989 18.0005 15.3897 17.9214 15.5303 17.7808C15.671 17.6401 15.75 17.4494 15.75 17.2505C15.748 15.4609 15.0362 13.7451 13.7708 12.4797C12.5053 11.2142 10.7896 10.5024 9 10.5005Z" fill="white"/>
</g>
<defs>
<clipPath id="clip0_69_1716">
<rect width="18" height="18" fill="white"/>
</clipPath>
</defs>
</svg>
