<svg width="24" height="24" viewBox="0 0 24 24" fill="none" xmlns="http://www.w3.org/2000/svg">
<g clip-path="url(#clip0_104_1033)">
<path d="M24 9.72374V18.9997C23.9984 20.3253 23.4711 21.5962 22.5338 22.5335C21.5964 23.4709 20.3256 23.9982 19 23.9997H18C17.7348 23.9997 17.4804 23.8944 17.2929 23.7068C17.1054 23.5193 17 23.265 17 22.9997C17 22.7345 17.1054 22.4802 17.2929 22.2926C17.4804 22.1051 17.7348 21.9997 18 21.9997H19C19.7957 21.9997 20.5587 21.6837 21.1213 21.1211C21.6839 20.5585 22 19.7954 22 18.9997V9.72374C22 9.23266 21.8795 8.74908 21.649 8.31545C21.4185 7.88183 21.0851 7.51142 20.678 7.23674L13.678 2.51374C13.1834 2.17654 12.5986 1.99619 12 1.99619C11.4014 1.99619 10.8166 2.17654 10.322 2.51374L3.322 7.23674C2.91493 7.51142 2.5815 7.88183 2.351 8.31545C2.1205 8.74908 1.99998 9.23266 2 9.72374V18.9997C2 19.7954 2.31607 20.5585 2.87868 21.1211C3.44129 21.6837 4.20435 21.9997 5 21.9997H6C6.26522 21.9997 6.51957 22.1051 6.70711 22.2926C6.89465 22.4802 7 22.7345 7 22.9997C7 23.265 6.89465 23.5193 6.70711 23.7068C6.51957 23.8944 6.26522 23.9997 6 23.9997H5C3.67441 23.9982 2.40356 23.4709 1.46622 22.5335C0.528886 21.5962 0.00159177 20.3253 3.91707e-06 18.9997V9.72374C-0.00102096 8.90546 0.199083 8.09946 0.582708 7.37668C0.966334 6.65389 1.52172 6.03647 2.2 5.57874L9.2 0.854738C10.0253 0.294691 10.9997 -0.00471497 11.997 -0.00471497C12.9944 -0.00471497 13.9687 0.294691 14.794 0.854738L21.794 5.57874C22.473 6.03623 23.0292 6.65345 23.4138 7.37618C23.7985 8.09891 23.9998 8.90503 24 9.72374ZM19 15.0067C19.0026 15.9262 18.8227 16.8371 18.4708 17.6866C18.1189 18.5361 17.602 19.3074 16.95 19.9557L13.435 23.3937C13.0502 23.7663 12.5356 23.9746 12 23.9746C11.4644 23.9746 10.9498 23.7663 10.565 23.3937L7.058 19.9637C6.2424 19.1507 5.63999 18.149 5.30419 17.0474C4.96839 15.9458 4.90957 14.7783 5.13293 13.6486C5.3563 12.5188 5.85496 11.4616 6.58471 10.5707C7.31445 9.67973 8.25274 8.98261 9.31639 8.5411C10.38 8.09959 11.5362 7.92733 12.6823 8.03959C13.8285 8.15185 14.9293 8.54516 15.887 9.18465C16.8448 9.82414 17.63 10.6901 18.173 11.7056C18.716 12.7212 19.0001 13.8551 19 15.0067ZM17 15.0067C17 14.1845 16.7973 13.375 16.4097 12.6498C16.0221 11.9247 15.4617 11.3063 14.778 10.8494C14.0944 10.3926 13.3086 10.1114 12.4904 10.0308C11.6721 9.95014 10.8466 10.0725 10.0869 10.3871C9.32726 10.7017 8.6569 11.1988 8.13523 11.8344C7.61356 12.4699 7.25667 13.2243 7.09618 14.0307C6.93569 14.8371 6.97654 15.6707 7.21513 16.4575C7.45372 17.2444 7.88268 17.9603 8.464 18.5417L11.964 21.9637L15.544 18.5337C16.0076 18.0711 16.375 17.5213 16.6249 16.9159C16.8748 16.3105 17.0023 15.6617 17 15.0067ZM15 14.9997C15 15.5931 14.8241 16.1731 14.4944 16.6665C14.1648 17.1598 13.6962 17.5443 13.1481 17.7714C12.5999 17.9984 11.9967 18.0579 11.4147 17.9421C10.8328 17.8263 10.2982 17.5406 9.87868 17.1211C9.45913 16.7015 9.1734 16.167 9.05765 15.585C8.94189 15.0031 9.0013 14.3999 9.22837 13.8517C9.45543 13.3035 9.83995 12.835 10.3333 12.5053C10.8266 12.1757 11.4067 11.9997 12 11.9997C12.7957 11.9997 13.5587 12.3158 14.1213 12.8784C14.6839 13.441 15 14.2041 15 14.9997Z" fill="#7897DA"/>
</g>
<defs>
<clipPath id="clip0_104_1033">
<rect width="24" height="24" fill="white"/>
</clipPath>
</defs>
</svg>
