<svg width="26" height="26" viewBox="0 0 26 26" fill="none" xmlns="http://www.w3.org/2000/svg">
<g clip-path="url(#clip0_148_597)">
<path d="M20.21 1.00776L7.00204 14.2158C6.49757 14.7175 6.09765 15.3143 5.82541 15.9717C5.55317 16.629 5.41403 17.3338 5.41604 18.0453V19.5003C5.41604 19.7876 5.53017 20.0631 5.73334 20.2663C5.9365 20.4695 6.21205 20.5836 6.49937 20.5836H7.95429C8.66578 20.5856 9.3706 20.4465 10.028 20.1742C10.6853 19.902 11.2821 19.5021 11.7839 18.9976L24.9919 5.78959C25.625 5.15494 25.9805 4.2951 25.9805 3.39867C25.9805 2.50224 25.625 1.6424 24.9919 1.00776C24.348 0.392308 23.4916 0.0488434 22.601 0.0488434C21.7103 0.0488434 20.8539 0.392308 20.21 1.00776ZM23.46 4.25776L10.252 17.4658C9.64117 18.0729 8.81554 18.4147 7.95429 18.4169H7.5827V18.0453C7.58496 17.1841 7.92673 16.3585 8.53387 15.7476L21.7419 2.53959C21.9733 2.31854 22.2809 2.19519 22.601 2.19519C22.921 2.19519 23.2286 2.31854 23.46 2.53959C23.6875 2.76765 23.8152 3.07659 23.8152 3.39867C23.8152 3.72076 23.6875 4.0297 23.46 4.25776Z" fill="#7897DA"/>
<path d="M24.9167 9.72725C24.6294 9.72725 24.3538 9.84139 24.1506 10.0446C23.9475 10.2477 23.8333 10.5233 23.8333 10.8106V16.25H19.5C18.6381 16.25 17.8114 16.5924 17.2019 17.2019C16.5924 17.8114 16.25 18.638 16.25 19.5V23.8333H5.41667C4.55471 23.8333 3.72806 23.4909 3.11857 22.8814C2.50908 22.2719 2.16667 21.4453 2.16667 20.5833V5.41667C2.16667 4.55471 2.50908 3.72806 3.11857 3.11857C3.72806 2.50908 4.55471 2.16667 5.41667 2.16667H15.2122C15.4995 2.16667 15.775 2.05253 15.9782 1.84937C16.1814 1.6462 16.2955 1.37065 16.2955 1.08333C16.2955 0.796016 16.1814 0.520465 15.9782 0.317301C15.775 0.114137 15.4995 0 15.2122 0L5.41667 0C3.98061 0.00172018 2.60385 0.572955 1.58841 1.5884C0.572956 2.60385 0.00172018 3.98061 0 5.41667L0 20.5833C0.00172018 22.0194 0.572956 23.3961 1.58841 24.4116C2.60385 25.427 3.98061 25.9983 5.41667 26H17.7049C18.4166 26.002 19.1216 25.8629 19.7791 25.5907C20.4366 25.3184 21.0336 24.9185 21.5356 24.414L24.4129 21.5345C24.9175 21.0328 25.3175 20.436 25.59 19.7786C25.8624 19.1213 26.0018 18.4165 26 17.7049V10.8106C26 10.5233 25.8859 10.2477 25.6827 10.0446C25.4795 9.84139 25.204 9.72725 24.9167 9.72725ZM20.0038 22.8822C19.5683 23.3166 19.0176 23.6173 18.4167 23.7488V19.5C18.4167 19.2127 18.5308 18.9371 18.734 18.734C18.9371 18.5308 19.2127 18.4167 19.5 18.4167H23.7521C23.6181 19.0163 23.3177 19.566 22.8854 20.0027L20.0038 22.8822Z" fill="#7897DA"/>
</g>
<defs>
<clipPath id="clip0_148_597">
<rect width="26" height="26" fill="white"/>
</clipPath>
</defs>
</svg>
