<svg width="30" height="30" viewBox="0 0 30 30" fill="none" xmlns="http://www.w3.org/2000/svg">
<g clip-path="url(#clip0_104_496)">
<path d="M15 5C16.3807 5 17.5 3.88071 17.5 2.5C17.5 1.11929 16.3807 0 15 0C13.6193 0 12.5 1.11929 12.5 2.5C12.5 3.88071 13.6193 5 15 5Z" fill="#7897DA"/>
<path d="M15 17.5005C16.3807 17.5005 17.5 16.3812 17.5 15.0005C17.5 13.6198 16.3807 12.5005 15 12.5005C13.6193 12.5005 12.5 13.6198 12.5 15.0005C12.5 16.3812 13.6193 17.5005 15 17.5005Z" fill="#7897DA"/>
<path d="M15 29.9998C16.3807 29.9998 17.5 28.8805 17.5 27.4998C17.5 26.1191 16.3807 24.9998 15 24.9998C13.6193 24.9998 12.5 26.1191 12.5 27.4998C12.5 28.8805 13.6193 29.9998 15 29.9998Z" fill="#7897DA"/>
</g>
<defs>
<clipPath id="clip0_104_496">
<rect width="30" height="30" fill="white"/>
</clipPath>
</defs>
</svg>
