<svg width="24" height="24" viewBox="0 0 24 24" fill="none" xmlns="http://www.w3.org/2000/svg">
<g clip-path="url(#clip0_69_1792)">
<path d="M23.9992 11.2472C23.8546 8.9072 23.0283 6.66069 21.6224 4.78461C20.2164 2.90852 18.2922 1.48488 16.0869 0.689177C13.8816 -0.106521 11.4917 -0.239484 9.21174 0.306678C6.9318 0.85284 4.86152 2.05425 3.25613 3.7628C1.65074 5.47135 0.580416 7.61235 0.177117 9.92184C-0.226181 12.2313 0.055172 14.6084 0.986492 16.7599C1.91781 18.9114 3.45838 20.7434 5.41828 22.0299C7.37818 23.3165 9.67173 24.0014 12.0162 24.0002H18.9992C20.3249 23.9989 21.5959 23.4717 22.5332 22.5343C23.4706 21.5969 23.9979 20.3259 23.9992 19.0002V11.2472ZM21.9992 19.0002C21.9992 19.7958 21.6831 20.5589 21.1205 21.1215C20.5579 21.6841 19.7948 22.0002 18.9992 22.0002H12.0162C10.6051 21.9995 9.21002 21.7015 7.92187 21.1255C6.63373 20.5495 5.48145 19.7084 4.54018 18.6572C3.59435 17.6065 2.88411 16.3657 2.45707 15.018C2.03003 13.6703 1.89607 12.2469 2.06418 10.8432C2.32961 8.62912 3.32436 6.56637 4.89162 4.98011C6.45887 3.39384 8.50948 2.37429 10.7202 2.08218C11.1514 2.02813 11.5856 2.00075 12.0202 2.00018C14.3507 1.99383 16.609 2.80808 18.3992 4.30018C19.4447 5.16913 20.3029 6.24133 20.9217 7.45181C21.5405 8.66229 21.9071 9.98582 21.9992 11.3422V19.0002Z" fill="#0D1931"/>
<path d="M8 8.99984H12C12.2652 8.99984 12.5196 8.89448 12.7071 8.70694C12.8946 8.51941 13 8.26505 13 7.99984C13 7.73462 12.8946 7.48027 12.7071 7.29273C12.5196 7.1052 12.2652 6.99984 12 6.99984H8C7.73478 6.99984 7.48043 7.1052 7.29289 7.29273C7.10536 7.48027 7 7.73462 7 7.99984C7 8.26505 7.10536 8.51941 7.29289 8.70694C7.48043 8.89448 7.73478 8.99984 8 8.99984Z" fill="#0D1931"/>
<path d="M16 11.0002H8C7.73478 11.0002 7.48043 11.1055 7.29289 11.2931C7.10536 11.4806 7 11.7349 7 12.0002C7 12.2654 7.10536 12.5197 7.29289 12.7073C7.48043 12.8948 7.73478 13.0002 8 13.0002H16C16.2652 13.0002 16.5196 12.8948 16.7071 12.7073C16.8946 12.5197 17 12.2654 17 12.0002C17 11.7349 16.8946 11.4806 16.7071 11.2931C16.5196 11.1055 16.2652 11.0002 16 11.0002Z" fill="#0D1931"/>
<path d="M16 15H8C7.73478 15 7.48043 15.1054 7.29289 15.2929C7.10536 15.4804 7 15.7348 7 16C7 16.2652 7.10536 16.5196 7.29289 16.7071C7.48043 16.8947 7.73478 17 8 17H16C16.2652 17 16.5196 16.8947 16.7071 16.7071C16.8946 16.5196 17 16.2652 17 16C17 15.7348 16.8946 15.4804 16.7071 15.2929C16.5196 15.1054 16.2652 15 16 15Z" fill="#0D1931"/>
</g>
<defs>
<clipPath id="clip0_69_1792">
<rect width="24" height="24" fill="white"/>
</clipPath>
</defs>
</svg>
