<svg width="47" height="15" viewBox="0 0 47 15" fill="none" xmlns="http://www.w3.org/2000/svg">
<path fill-rule="evenodd" clip-rule="evenodd" d="M24.3072 4.79533C24.2804 6.88487 26.1913 8.05084 27.631 8.7442C29.11 9.45552 29.6068 9.91161 29.6011 10.5476C29.5898 11.5212 28.4213 11.9508 27.3275 11.9676C25.4709 11.996 24.3705 11.4872 23.4999 11.0845L23.428 11.0511L22.7407 14.23C23.6255 14.633 25.2642 14.9846 26.9633 15C30.9518 15 33.5613 13.0541 33.5755 10.0371C33.5847 7.74656 31.6651 6.75053 30.1289 5.95344C29.0973 5.41799 28.2386 4.97248 28.2533 4.28489C28.2661 3.76595 28.767 3.21222 29.865 3.07131C30.4084 3.00029 31.9087 2.94578 33.6093 3.71994L34.2768 0.644465C33.3623 0.315179 32.1867 0 30.7232 0C26.969 0 24.3285 1.97219 24.3072 4.79533ZM40.6913 0.265001C39.9632 0.265001 39.3491 0.684865 39.0754 1.32933L33.3778 14.774H37.3635L38.1566 12.6078H43.0271L43.4872 14.774H47L43.9346 0.265001H40.6913ZM42.399 9.63266L41.2488 4.18453L39.2489 9.63266H42.399ZM19.4748 0.265001L16.3332 14.774H20.1312L23.2713 0.265001H19.4748ZM9.90324 10.1404L13.8564 0.265001H17.8448L11.6913 14.774H7.67754L4.64895 3.19555C4.46548 2.48279 4.30588 2.22052 3.74712 1.92073C2.83402 1.42969 1.32667 0.970706 0 0.686308L0.0903306 0.265001H6.55283C7.37551 0.265001 8.11659 0.806223 8.30432 1.74358L9.90324 10.1404Z" fill="url(#paint0_linear_104_636)"/>
<defs>
<linearGradient id="paint0_linear_104_636" x1="0.0819247" y1="4.61353" x2="13.0192" y2="-13.9715" gradientUnits="userSpaceOnUse">
<stop stop-color="#222357"/>
<stop offset="1" stop-color="#254AA5"/>
</linearGradient>
</defs>
</svg>
