<svg width="98" height="137" viewBox="0 0 98 137" fill="none" xmlns="http://www.w3.org/2000/svg">
<g clip-path="url(#clip0_104_605)">
<path d="M12.1884 47.4617V123.109C12.1884 130.78 18.4075 136.999 26.0795 136.999H113.715C119.925 136.999 124.959 131.966 124.959 125.757V47.4627C124.959 41.2531 119.925 36.2192 113.715 36.2192H23.4319C17.2222 36.2192 12.1884 41.2531 12.1884 47.4617Z" fill="url(#paint0_linear_104_605)"/>
<path d="M22.9362 55.5622H112.976C117.002 55.5622 120.266 52.299 120.266 48.2728C120.266 44.2466 117.002 40.9834 112.976 40.9834H22.9362C18.91 40.9834 15.6468 44.2466 15.6468 48.2728C15.6468 52.299 18.91 55.5622 22.9362 55.5622Z" fill="url(#paint1_linear_104_605)"/>
<path d="M23.4325 36.2192H34.3008V104.665H26.0801C18.4091 104.665 12.189 98.4447 12.189 90.7738V47.4617C12.189 41.2531 17.2228 36.2192 23.4325 36.2192Z" fill="url(#paint2_linear_104_605)"/>
<path d="M22.7275 45.8447C22.7275 71.1643 43.2537 91.6905 68.5733 91.6905C93.8928 91.6905 114.418 71.1643 114.418 45.8447C114.418 20.5251 93.8928 0 68.5733 0C43.2537 0 22.7275 20.5251 22.7275 45.8447Z" fill="url(#paint3_radial_104_605)"/>
<path d="M114.418 45.8446C114.418 62.2076 105.844 76.5659 92.9448 84.6779H44.2007C31.3026 76.5659 22.7286 62.2076 22.7286 45.8446C22.7286 29.4815 31.3026 15.1243 44.2007 7.01123H92.9448C105.844 15.1243 114.418 29.4815 114.418 45.8446Z" fill="url(#paint4_linear_104_605)"/>
<path d="M114.418 45.8445C114.418 57.5176 110.053 68.1695 102.869 76.2627H34.2762C27.0934 68.1695 22.7275 57.5176 22.7275 45.8445C22.7275 34.1714 27.0924 23.5195 34.2762 15.4263H102.869C110.053 23.5195 114.418 34.1714 114.418 45.8445Z" fill="url(#paint5_linear_104_605)"/>
<path d="M114.418 45.8445C114.418 52.6667 112.925 59.1398 110.253 64.9585H26.8927C24.2201 59.1398 22.7275 52.6667 22.7275 45.8445C22.7275 39.0223 24.2201 32.5492 26.8927 26.7314H110.253C112.925 32.5492 114.418 39.0223 114.418 45.8445Z" fill="url(#paint6_linear_104_605)"/>
<path d="M114.418 45.8445C114.418 49.7934 113.917 53.6252 112.978 57.2814H24.1678C23.2282 53.6252 22.7275 49.7944 22.7275 45.8445C22.7275 41.8957 23.2282 38.0639 24.1678 34.4087H112.978C113.917 38.0639 114.418 41.8957 114.418 45.8445Z" fill="url(#paint7_linear_104_605)"/>
<path d="M72.2138 0.143066C95.8307 1.99939 114.418 21.751 114.418 45.8446C114.418 69.9391 95.8307 89.6908 72.2138 91.5461C48.5958 89.6908 30.0086 69.9391 30.0086 45.8446C30.0086 21.751 48.5958 1.99939 72.2138 0.143066Z" fill="url(#paint8_radial_104_605)"/>
<path d="M69.8409 4.3399C71.415 4.12563 73.0132 4.12563 74.5873 4.3399C95.0267 7.12021 110.779 24.6424 110.779 45.8448C110.779 67.0473 95.0267 84.5705 74.5873 87.3508C73.0132 87.5651 71.415 87.5651 69.8409 87.3508C49.4015 84.5705 33.6499 67.0473 33.6499 45.8448C33.6499 24.6424 49.4015 7.12021 69.8409 4.3399Z" fill="url(#paint9_radial_104_605)"/>
<path d="M41.7426 45.8448C41.7426 27.3715 55.4685 12.3965 72.4001 12.3965C89.3307 12.3965 103.057 27.3715 103.057 45.8448C103.057 64.3181 89.3307 79.2942 72.4001 79.2942C55.4685 79.2942 41.7426 64.3181 41.7426 45.8448Z" fill="url(#paint10_radial_104_605)"/>
<path d="M63.9836 13.6749C67.7997 12.4886 71.8771 12.4886 75.6933 13.6749C88.5318 17.6656 97.9336 30.5564 97.9336 45.8449C97.9336 61.4324 88.1607 74.528 74.9365 78.2396C71.6054 79.1741 68.0715 79.1741 64.7414 78.2396C51.5161 74.528 41.7432 61.4324 41.7432 45.8449C41.7432 30.5564 51.1451 17.6656 63.9836 13.6749Z" fill="url(#paint11_radial_104_605)"/>
<path d="M102.46 50.9096L82.1662 30.6166C81.7983 29.9737 81.0322 29.4438 79.8688 29.0257C78.6741 28.5961 77.401 28.3045 76.0517 28.1435L74.2706 26.5548C74.2351 26.3039 74.0877 26.0761 73.8149 25.8744C73.5003 25.6434 73.1616 25.5273 72.7979 25.5273C72.4017 25.5273 72.061 25.6434 71.7809 25.8744C71.4997 26.1064 71.3586 26.3708 71.3586 26.6687V28.108C68.6797 28.4049 66.4387 29.2985 64.6367 30.7869C62.8337 32.2753 61.9327 34.4567 61.9327 37.33C61.9327 38.3533 62.0477 39.2857 62.2797 40.1271C62.5107 40.9695 62.8912 41.7033 63.4211 42.3304C63.95 42.9576 64.4549 43.4948 64.9346 43.9401C64.9597 43.9641 64.9879 43.9871 65.0141 44.0101L71.3596 50.3703V58.6694C69.8932 58.5712 68.6023 58.1917 67.486 57.5312C66.3697 56.8716 65.4928 56.2528 64.8541 55.6748C64.2155 55.0968 63.7002 54.8083 63.3083 54.8083C62.7156 54.8083 62.1899 55.1219 61.73 55.749C61.269 56.3762 61.0391 57.0033 61.0391 57.6304C61.0391 58.6579 61.6359 59.6707 62.8233 60.6689L80.2618 78.1075C91.8064 74.6614 100.632 64.0408 102.46 50.9096Z" fill="url(#paint12_linear_104_605)"/>
<path d="M61.0391 57.6304C61.0391 57.0033 61.268 56.3762 61.7289 55.749C62.1888 55.1219 62.7146 54.8083 63.3072 54.8083C63.6992 54.8083 64.2145 55.0968 64.8541 55.6748C65.4917 56.2528 66.3697 56.8716 67.485 57.5312C68.6023 58.1917 69.8921 58.5712 71.3586 58.6694V47.035C70.3667 46.6712 69.6047 46.3828 69.0769 46.1674C68.5469 45.9532 67.8435 45.6396 66.9676 45.2267C66.0917 44.8149 65.4133 44.3853 64.9336 43.9401C64.4538 43.4938 63.949 42.9576 63.4201 42.3304C62.8912 41.7033 62.5107 40.9685 62.2787 40.1271C62.0477 39.2857 61.9317 38.3523 61.9317 37.329C61.9317 34.4567 62.8327 32.2753 64.6357 30.7859C66.4387 29.2975 68.6797 28.4049 71.3586 28.107V26.6687C71.3586 26.3708 71.4986 26.1064 71.7798 25.8744C72.061 25.6434 72.4007 25.5273 72.7979 25.5273C73.1606 25.5273 73.5003 25.6434 73.8149 25.8744C74.1284 26.1064 74.2863 26.3708 74.2863 26.6687V28.0077C76.3036 28.0746 78.1641 28.4132 79.8678 29.0247C81.5715 29.6372 82.4234 30.489 82.4234 31.5803C82.4234 32.176 82.2227 32.7959 81.8224 33.4408C81.422 34.0857 80.8879 34.4076 80.2211 34.4076C79.9577 34.4076 79.2323 34.1275 78.048 33.5641C76.8628 33.0028 75.6085 32.6715 74.2863 32.5722V42.6273C75.6022 43.1227 76.6955 43.593 77.5672 44.0383C78.4379 44.4846 79.3598 45.1034 80.3308 45.8957C81.3008 46.688 82.0324 47.6862 82.5258 48.8903C83.0191 50.0954 83.2658 51.5075 83.2658 53.1245C83.2658 56.0793 82.4599 58.428 80.8482 60.1714C79.2365 61.9138 77.0488 62.9841 74.2863 63.3823V65.0401C74.2863 65.3327 74.1284 65.5919 73.8149 65.8198C73.5003 66.0477 73.1606 66.1616 72.7979 66.1616C72.4007 66.1616 72.061 66.0477 71.7798 65.8208C71.4986 65.593 71.3586 65.3327 71.3586 65.0411V63.5318C68.4811 63.4984 66.0415 62.8399 64.0399 61.5563C62.0383 60.2738 61.0391 58.9642 61.0391 57.6304ZM66.8432 36.8346C66.8432 38.1223 67.2446 39.1048 68.0463 39.7811C68.848 40.4574 70.051 41.0929 71.6554 41.6866V32.6673C68.4476 33.0645 66.8432 34.4536 66.8432 36.8346ZM73.9884 58.5712C76.8983 58.0433 78.3543 56.4086 78.3543 53.669C78.3543 52.2172 77.9738 51.0779 77.2129 50.2532C76.452 49.4286 75.3775 48.7188 73.9884 48.1241V58.5712Z" fill="url(#paint13_linear_104_605)"/>
<path d="M12.188 69.1082V123.109C12.188 130.78 18.4081 137 26.079 137H34.3008V57.4414H27.4807C24.9554 57.4414 22.6831 58.5096 21.0818 60.2144L12.188 69.1082Z" fill="url(#paint14_linear_104_605)"/>
<path d="M18.7022 66.2206V127.265C18.7022 132.641 23.0608 136.999 28.4375 136.999H115.224C120.599 136.999 124.959 132.643 124.959 127.265V47.4619C124.959 52.9734 120.491 57.4417 114.976 57.4417H27.4811C22.6323 57.4417 18.7022 61.3728 18.7022 66.2206Z" fill="url(#paint15_linear_104_605)"/>
<path d="M90.6286 136.999H115.223C120.598 136.999 124.957 132.641 124.957 127.265V47.4604C124.957 52.973 120.488 57.4413 114.976 57.4413H90.6276V136.999H90.6286Z" fill="url(#paint16_linear_104_605)"/>
<path d="M21.0162 86.2283H46.4821C49.4735 86.2283 51.8984 88.6532 51.8984 91.6447V102.369C51.8984 104.069 51.1135 105.585 49.8874 106.578L20.5928 135.872C15.65 133.744 12.1882 128.832 12.1882 123.109V77.4014C12.1882 82.2763 16.1412 86.2283 21.0162 86.2283Z" fill="url(#paint17_linear_104_605)"/>
<path d="M21.0162 107.785H46.4821C49.4735 107.785 51.8984 105.36 51.8984 102.369V91.6447C51.8984 88.6532 49.4735 86.2283 46.4821 86.2283H21.0162C16.1412 86.2283 12.1882 82.2763 12.1882 77.4014V98.9581C12.1882 103.833 16.1412 107.785 21.0162 107.785Z" fill="url(#paint18_linear_104_605)"/>
<path d="M36.209 93.4452C37.3221 92.2473 38.9067 91.4927 40.671 91.4927C44.0356 91.4927 46.7637 94.2207 46.7637 97.5853C46.7637 99.3496 46.009 100.934 44.8101 102.046L39.0718 107.785H21.8705L36.209 93.4452Z" fill="url(#paint19_linear_104_605)"/>
<path d="M34.5774 97.5853C34.5774 100.95 37.3054 103.678 40.671 103.678C44.0356 103.678 46.7637 100.95 46.7637 97.5853C46.7637 94.2207 44.0356 91.4927 40.671 91.4927C37.3054 91.4927 34.5774 94.2207 34.5774 97.5853Z" fill="url(#paint20_radial_104_605)"/>
<path d="M21.017 86.2283H30.8516V107.785H21.017C16.1421 107.785 12.189 103.833 12.189 98.9581V77.4014C12.189 82.2763 16.1421 86.2283 21.017 86.2283Z" fill="url(#paint21_linear_104_605)"/>
<path d="M124.959 116.053V125.757C124.959 131.965 119.925 136.999 113.715 136.999H26.0795C18.4075 136.999 12.1884 130.78 12.1884 123.109V116.053H124.959Z" fill="url(#paint22_linear_104_605)"/>
</g>
<defs>
<linearGradient id="paint0_linear_104_605" x1="94.3286" y1="60.8545" x2="19.2337" y2="135.949" gradientUnits="userSpaceOnUse">
<stop stop-color="#FF4974"/>
<stop offset="0.3262" stop-color="#FE4672"/>
<stop offset="0.5324" stop-color="#FB3E6C"/>
<stop offset="0.7054" stop-color="#F52F60"/>
<stop offset="0.8591" stop-color="#EE1A51"/>
<stop offset="1" stop-color="#E4003D"/>
</linearGradient>
<linearGradient id="paint1_linear_104_605" x1="67.7208" y1="49.8112" x2="72.0324" y2="21.62" gradientUnits="userSpaceOnUse">
<stop stop-color="#E4003D" stop-opacity="0"/>
<stop offset="0.5838" stop-color="#BD294B" stop-opacity="0.584314"/>
<stop offset="1" stop-color="#A64153"/>
</linearGradient>
<linearGradient id="paint2_linear_104_605" x1="29.0039" y1="69.0184" x2="43.4697" y2="58.5236" gradientUnits="userSpaceOnUse">
<stop stop-color="#E4003D" stop-opacity="0"/>
<stop offset="0.5838" stop-color="#BD294B" stop-opacity="0.584314"/>
<stop offset="1" stop-color="#A64153"/>
</linearGradient>
<radialGradient id="paint3_radial_104_605" cx="0" cy="0" r="1" gradientUnits="userSpaceOnUse" gradientTransform="translate(70.799 44.2648) rotate(180) scale(47.7492)">
<stop stop-color="#FFA700"/>
<stop offset="0.3227" stop-color="#FCA300"/>
<stop offset="0.6649" stop-color="#F39600"/>
<stop offset="1" stop-color="#E58200"/>
</radialGradient>
<linearGradient id="paint4_linear_104_605" x1="68.5728" y1="38.6017" x2="68.5728" y2="120.525" gradientUnits="userSpaceOnUse">
<stop stop-color="#E58200" stop-opacity="0"/>
<stop offset="0.0396" stop-color="#E27F04" stop-opacity="0.039216"/>
<stop offset="0.4671" stop-color="#C15D2F" stop-opacity="0.466667"/>
<stop offset="0.8016" stop-color="#AD4949" stop-opacity="0.8"/>
<stop offset="1" stop-color="#A64153"/>
</linearGradient>
<linearGradient id="paint5_linear_104_605" x1="68.5728" y1="56.9387" x2="68.5728" y2="-25.8477" gradientUnits="userSpaceOnUse">
<stop stop-color="#E58200" stop-opacity="0"/>
<stop offset="0.0396" stop-color="#E27F04" stop-opacity="0.039216"/>
<stop offset="0.4671" stop-color="#C15D2F" stop-opacity="0.466667"/>
<stop offset="0.8016" stop-color="#AD4949" stop-opacity="0.8"/>
<stop offset="1" stop-color="#A64153"/>
</linearGradient>
<linearGradient id="paint6_linear_104_605" x1="68.5728" y1="47.2308" x2="68.5728" y2="73.7072" gradientUnits="userSpaceOnUse">
<stop stop-color="#E58200" stop-opacity="0"/>
<stop offset="0.0396" stop-color="#E27F04" stop-opacity="0.039216"/>
<stop offset="0.4671" stop-color="#C15D2F" stop-opacity="0.466667"/>
<stop offset="0.8016" stop-color="#AD4949" stop-opacity="0.8"/>
<stop offset="1" stop-color="#A64153"/>
</linearGradient>
<linearGradient id="paint7_linear_104_605" x1="68.5728" y1="55.8601" x2="68.5728" y2="10.7748" gradientUnits="userSpaceOnUse">
<stop stop-color="#E58200" stop-opacity="0"/>
<stop offset="0.0396" stop-color="#E27F04" stop-opacity="0.039216"/>
<stop offset="0.4671" stop-color="#C15D2F" stop-opacity="0.466667"/>
<stop offset="0.8016" stop-color="#AD4949" stop-opacity="0.8"/>
<stop offset="1" stop-color="#A64153"/>
</linearGradient>
<radialGradient id="paint8_radial_104_605" cx="0" cy="0" r="1" gradientUnits="userSpaceOnUse" gradientTransform="translate(85.6304 33.4781) rotate(180) scale(64.1801 64.1801)">
<stop stop-color="#FFC738"/>
<stop offset="0.2837" stop-color="#FFC534"/>
<stop offset="0.5391" stop-color="#FFBF29"/>
<stop offset="0.7827" stop-color="#FFB417"/>
<stop offset="1" stop-color="#FFA700"/>
</radialGradient>
<radialGradient id="paint9_radial_104_605" cx="0" cy="0" r="1" gradientUnits="userSpaceOnUse" gradientTransform="translate(72.2141 45.8451) rotate(180) scale(40.1454 40.1455)">
<stop stop-color="#FFFCF8"/>
<stop offset="0.9485" stop-color="#FFFCF8" stop-opacity="0.05098"/>
<stop offset="1" stop-color="#FFFCF8" stop-opacity="0"/>
</radialGradient>
<radialGradient id="paint10_radial_104_605" cx="0" cy="0" r="1" gradientUnits="userSpaceOnUse" gradientTransform="translate(69.2614 41.5561) rotate(180) scale(47.9803 52.3517)">
<stop stop-color="#FFA700"/>
<stop offset="0.3227" stop-color="#FCA300"/>
<stop offset="0.6649" stop-color="#F39600"/>
<stop offset="1" stop-color="#E58200"/>
</radialGradient>
<radialGradient id="paint11_radial_104_605" cx="0" cy="0" r="1" gradientUnits="userSpaceOnUse" gradientTransform="translate(81.5243 34.3406) rotate(180) scale(48.895 48.895)">
<stop stop-color="#FFC738"/>
<stop offset="0.2837" stop-color="#FFC534"/>
<stop offset="0.5391" stop-color="#FFBF29"/>
<stop offset="0.7827" stop-color="#FFB417"/>
<stop offset="1" stop-color="#FFA700"/>
</radialGradient>
<linearGradient id="paint12_linear_104_605" x1="89.6686" y1="54.8335" x2="58.5659" y2="47.6421" gradientUnits="userSpaceOnUse">
<stop stop-color="#FFA700" stop-opacity="0"/>
<stop offset="0.0206" stop-color="#FEA600" stop-opacity="0.019608"/>
<stop offset="0.6348" stop-color="#EC8C00" stop-opacity="0.635294"/>
<stop offset="1" stop-color="#E58200"/>
</linearGradient>
<linearGradient id="paint13_linear_104_605" x1="69.8662" y1="45.8447" x2="81.1297" y2="45.8447" gradientUnits="userSpaceOnUse">
<stop stop-color="#FFA700"/>
<stop offset="0.3227" stop-color="#FCA300"/>
<stop offset="0.6649" stop-color="#F39600"/>
<stop offset="1" stop-color="#E58200"/>
</linearGradient>
<linearGradient id="paint14_linear_104_605" x1="0.27643" y1="99.5807" x2="28.8008" y2="97.3695" gradientUnits="userSpaceOnUse">
<stop stop-color="#E4003D" stop-opacity="0"/>
<stop offset="0.5838" stop-color="#BD294B" stop-opacity="0.584314"/>
<stop offset="1" stop-color="#A64153"/>
</linearGradient>
<linearGradient id="paint15_linear_104_605" x1="89.4379" y1="79.3336" x2="27.4175" y2="141.354" gradientUnits="userSpaceOnUse">
<stop stop-color="#FF4974"/>
<stop offset="0.2115" stop-color="#FD4470"/>
<stop offset="0.4685" stop-color="#F83565"/>
<stop offset="0.748" stop-color="#EF1D52"/>
<stop offset="1" stop-color="#E4003D"/>
</linearGradient>
<linearGradient id="paint16_linear_104_605" x1="114.897" y1="92.2299" x2="134.391" y2="92.2299" gradientUnits="userSpaceOnUse">
<stop stop-color="#E4003D" stop-opacity="0"/>
<stop offset="0.5838" stop-color="#BD294B" stop-opacity="0.584314"/>
<stop offset="1" stop-color="#A64153"/>
</linearGradient>
<linearGradient id="paint17_linear_104_605" x1="20.2457" y1="126.497" x2="31.5914" y2="91.7033" gradientUnits="userSpaceOnUse">
<stop stop-color="#E4003D" stop-opacity="0"/>
<stop offset="0.5838" stop-color="#BD294B" stop-opacity="0.584314"/>
<stop offset="1" stop-color="#A64153"/>
</linearGradient>
<linearGradient id="paint18_linear_104_605" x1="33.5306" y1="87.2729" x2="23.1504" y2="109.681" gradientUnits="userSpaceOnUse">
<stop stop-color="#FFFCF8"/>
<stop offset="0.1875" stop-color="#FAF8F6"/>
<stop offset="0.4041" stop-color="#ECEEF2"/>
<stop offset="0.6353" stop-color="#D5DCEA"/>
<stop offset="0.875" stop-color="#B5C4DF"/>
<stop offset="1" stop-color="#A1B5D8"/>
</linearGradient>
<linearGradient id="paint19_linear_104_605" x1="30.1403" y1="108.115" x2="45.5141" y2="92.7416" gradientUnits="userSpaceOnUse">
<stop stop-color="#A1B5D8" stop-opacity="0"/>
<stop offset="0.0343" stop-color="#9FB3D5" stop-opacity="0.035294"/>
<stop offset="0.4515" stop-color="#8898AF" stop-opacity="0.45098"/>
<stop offset="0.788" stop-color="#798898" stop-opacity="0.788235"/>
<stop offset="1" stop-color="#748290"/>
</linearGradient>
<radialGradient id="paint20_radial_104_605" cx="0" cy="0" r="1" gradientUnits="userSpaceOnUse" gradientTransform="translate(46.3595 89.1684) rotate(180) scale(13.6685)">
<stop stop-color="#00E7B2"/>
<stop offset="0.3524" stop-color="#03E6B1"/>
<stop offset="0.5753" stop-color="#0BE1AF"/>
<stop offset="0.7622" stop-color="#1ADAAA"/>
<stop offset="0.9283" stop-color="#2FCFA4"/>
<stop offset="1" stop-color="#3AC9A0"/>
</radialGradient>
<linearGradient id="paint21_linear_104_605" x1="19.5041" y1="92.593" x2="9.85609" y2="92.593" gradientUnits="userSpaceOnUse">
<stop stop-color="#A1B5D8" stop-opacity="0"/>
<stop offset="0.0343" stop-color="#9FB3D5" stop-opacity="0.035294"/>
<stop offset="0.4515" stop-color="#8898AF" stop-opacity="0.45098"/>
<stop offset="0.788" stop-color="#798898" stop-opacity="0.788235"/>
<stop offset="1" stop-color="#748290"/>
</linearGradient>
<linearGradient id="paint22_linear_104_605" x1="68.5738" y1="129.058" x2="68.5738" y2="139.002" gradientUnits="userSpaceOnUse">
<stop stop-color="#E4003D" stop-opacity="0"/>
<stop offset="0.5838" stop-color="#BD294B" stop-opacity="0.584314"/>
<stop offset="1" stop-color="#A64153"/>
</linearGradient>
<clipPath id="clip0_104_605">
<rect width="137" height="137" fill="white" transform="matrix(-1 0 0 1 137 0)"/>
</clipPath>
</defs>
</svg>
